G04*
G04 #@! TF.GenerationSoftware,Altium Limited,Altium Designer,26.9.1 (10)*
G04*
G04 Layer_Physical_Order=4*
G04 Layer_Color=16711680*
G04 Board_Origin=0|0*
%FSLAX44Y44*%
%MOMM*%
G71*
G04*
G04 #@! TF.SameCoordinates,695D54B9-0906-40F6-838A-D20C187186EE*
G04*
G04*
G04 #@! TF.FilePolarity,Positive*
G04*
G01*
G75*
%ADD10C,0.3810*%
%ADD28C,1.3700*%
%ADD29C,0.2500*%
%ADD30C,0.2835*%
%ADD31O,2.2098X1.1938*%
%ADD32O,2.7178X1.1938*%
D10*
X1082838Y770856D02*
X1083952D01*
X1075351Y763369D02*
X1082838Y770856D01*
D28*
X849630Y872490D02*
D03*
X875030D02*
D03*
X900430D02*
D03*
X925830D02*
D03*
X951230D02*
D03*
X976630D02*
D03*
X1002030D02*
D03*
X1027430D02*
D03*
X1052830D02*
D03*
X1078230D02*
D03*
X1103630D02*
D03*
X1129030D02*
D03*
X850900Y715010D02*
D03*
X876300D02*
D03*
X849630Y661670D02*
D03*
X875030D02*
D03*
X900430D02*
D03*
X925830D02*
D03*
X951230D02*
D03*
X976630D02*
D03*
X1002030D02*
D03*
X1027430D02*
D03*
X1052830D02*
D03*
X1078230D02*
D03*
X1103630D02*
D03*
X1129030D02*
D03*
D29*
X897890Y784860D02*
D03*
X1013817Y792072D02*
D03*
X1013505Y786156D02*
D03*
X1013438Y779639D02*
D03*
X1012563Y763185D02*
D03*
X1043940Y750570D02*
D03*
X1079014Y734696D02*
D03*
X1079131Y802023D02*
D03*
X1113790Y831850D02*
D03*
X1103630Y820420D02*
D03*
X924560Y706120D02*
D03*
X939800Y746760D02*
D03*
X1086161Y775850D02*
D03*
X996950Y712470D02*
D03*
X939800Y778510D02*
D03*
Y770890D02*
D03*
Y787400D02*
D03*
X904240Y795020D02*
D03*
X914400Y762000D02*
D03*
X906780Y768350D02*
D03*
X935990Y801370D02*
D03*
X948690Y822960D02*
D03*
X942340Y810260D02*
D03*
X916940Y735330D02*
D03*
Y749300D02*
D03*
X922020Y807720D02*
D03*
X927100Y801370D02*
D03*
X1012190Y721360D02*
D03*
X1004570Y712470D02*
D03*
X1066800Y798830D02*
D03*
Y737870D02*
D03*
X1057910Y742950D02*
D03*
X1013460Y836930D02*
D03*
X1066800Y753110D02*
D03*
X1079781Y753350D02*
D03*
X1066800Y783590D02*
D03*
X1079500Y781050D02*
D03*
X1061720Y825500D02*
D03*
X1062990Y830580D02*
D03*
X1092200Y829310D02*
D03*
X1057910Y711200D02*
D03*
Y717550D02*
D03*
X1041400Y792480D02*
D03*
X1036320Y797560D02*
D03*
X1050290Y727710D02*
D03*
Y739140D02*
D03*
Y767080D02*
D03*
X1031240Y770890D02*
D03*
Y739140D02*
D03*
X1034023Y830498D02*
D03*
X1049020Y828040D02*
D03*
Y820420D02*
D03*
X1083952Y770856D02*
D03*
X1075351Y763369D02*
D03*
D30*
X1013817Y792072D02*
X1014322D01*
X1044053Y821803D01*
X1013505Y786156D02*
X1013531Y786130D01*
X1017865D01*
X1013438Y779639D02*
X1035584D01*
X1063794Y807849D01*
X1012563Y762897D02*
X1031352Y744108D01*
X1012563Y762897D02*
Y765437D01*
X985520Y792480D02*
X1012563Y765437D01*
X1031352Y744108D02*
X1036135D01*
X1047565Y732678D02*
X1052348D01*
X1036135Y744108D02*
X1047565Y732678D01*
X1086161Y775850D02*
X1103630Y793319D01*
Y820420D01*
X925830Y661670D02*
Y683275D01*
X919593Y689513D02*
X925830Y683275D01*
X919593Y689513D02*
Y708178D01*
X939800Y728385D01*
Y746760D01*
X924560Y706120D02*
X930910Y712470D01*
X996950D01*
X875030Y661670D02*
Y680720D01*
X923203Y728893D01*
X902995Y684212D02*
Y703261D01*
X927038Y727304D01*
Y758128D01*
X923203Y728893D02*
Y761913D01*
X1099257Y842717D02*
X1129030Y872490D01*
X1091488Y842717D02*
X1099257D01*
X1063794Y815024D02*
X1091488Y842717D01*
X1063794Y807849D02*
Y815024D01*
X1082664Y851524D02*
X1103630Y872490D01*
X1076909Y851524D02*
X1082664D01*
X1056752Y831368D02*
X1076909Y851524D01*
X1056752Y821127D02*
Y831368D01*
X1038153Y802527D02*
X1056752Y821127D01*
X1034262Y802527D02*
X1038153D01*
X1017865Y786130D02*
X1034262Y802527D01*
X1044053Y838313D02*
X1078230Y872490D01*
X1044053Y821803D02*
Y838313D01*
X902970Y684186D02*
X902995Y684212D01*
X900430Y661670D02*
X902509Y663749D01*
Y668302D01*
X902970Y668763D01*
Y684186D01*
X927038Y758128D02*
X939800Y770890D01*
X923203Y761913D02*
X939800Y778510D01*
X849630Y661670D02*
X911973Y724013D01*
Y752547D01*
X919368Y759942D01*
Y766967D01*
X939800Y787400D01*
X1073936Y716764D02*
X1129030Y661670D01*
X1068262Y716764D02*
X1073936D01*
X1052348Y732678D02*
X1068262Y716764D01*
X942340Y792480D02*
X985520D01*
X942244Y792384D02*
X942340Y792480D01*
X939896Y792384D02*
X942244D01*
X939800Y792480D02*
X939896Y792384D01*
X927100Y792480D02*
X939800D01*
X919480Y784860D02*
X927100Y792480D01*
X897890Y784860D02*
X919480D01*
D31*
X1077261Y725150D02*
D03*
Y811550D02*
D03*
D32*
X1130861Y725150D02*
D03*
Y811550D02*
D03*
M02*
