G04*
G04 #@! TF.GenerationSoftware,Altium Limited,Altium Designer,26.9.1 (10)*
G04*
G04 Layer_Physical_Order=1*
G04 Layer_Color=255*
G04 Board_Origin=0|0*
%FSLAX44Y44*%
%MOMM*%
G71*
G04*
G04 #@! TF.SameCoordinates,695D54B9-0906-40F6-838A-D20C187186EE*
G04*
G04*
G04 #@! TF.FilePolarity,Positive*
G04*
G01*
G75*
%ADD16R,0.4500X0.3000*%
%ADD17R,1.2000X0.5000*%
G04:AMPARAMS|DCode=18|XSize=0.45mm|YSize=0.65mm|CornerRadius=0.045mm|HoleSize=0mm|Usage=FLASHONLY|Rotation=180.000|XOffset=0mm|YOffset=0mm|HoleType=Round|Shape=RoundedRectangle|*
%AMROUNDEDRECTD18*
21,1,0.4500,0.5600,0,0,180.0*
21,1,0.3600,0.6500,0,0,180.0*
1,1,0.0900,-0.1800,0.2800*
1,1,0.0900,0.1800,0.2800*
1,1,0.0900,0.1800,-0.2800*
1,1,0.0900,-0.1800,-0.2800*
%
%ADD18ROUNDEDRECTD18*%
G04:AMPARAMS|DCode=19|XSize=0.7mm|YSize=1mm|CornerRadius=0.07mm|HoleSize=0mm|Usage=FLASHONLY|Rotation=270.000|XOffset=0mm|YOffset=0mm|HoleType=Round|Shape=RoundedRectangle|*
%AMROUNDEDRECTD19*
21,1,0.7000,0.8600,0,0,270.0*
21,1,0.5600,1.0000,0,0,270.0*
1,1,0.1400,-0.4300,-0.2800*
1,1,0.1400,-0.4300,0.2800*
1,1,0.1400,0.4300,0.2800*
1,1,0.1400,0.4300,-0.2800*
%
%ADD19ROUNDEDRECTD19*%
G04:AMPARAMS|DCode=20|XSize=0.7mm|YSize=1mm|CornerRadius=0.175mm|HoleSize=0mm|Usage=FLASHONLY|Rotation=180.000|XOffset=0mm|YOffset=0mm|HoleType=Round|Shape=RoundedRectangle|*
%AMROUNDEDRECTD20*
21,1,0.7000,0.6500,0,0,180.0*
21,1,0.3500,1.0000,0,0,180.0*
1,1,0.3500,-0.1750,0.3250*
1,1,0.3500,0.1750,0.3250*
1,1,0.3500,0.1750,-0.3250*
1,1,0.3500,-0.1750,-0.3250*
%
%ADD20ROUNDEDRECTD20*%
G04:AMPARAMS|DCode=21|XSize=0.7mm|YSize=1mm|CornerRadius=0.175mm|HoleSize=0mm|Usage=FLASHONLY|Rotation=270.000|XOffset=0mm|YOffset=0mm|HoleType=Round|Shape=RoundedRectangle|*
%AMROUNDEDRECTD21*
21,1,0.7000,0.6500,0,0,270.0*
21,1,0.3500,1.0000,0,0,270.0*
1,1,0.3500,-0.3250,-0.1750*
1,1,0.3500,-0.3250,0.1750*
1,1,0.3500,0.3250,0.1750*
1,1,0.3500,0.3250,-0.1750*
%
%ADD21ROUNDEDRECTD21*%
%ADD22R,0.5000X1.2000*%
%ADD23R,1.7000X1.8000*%
G04:AMPARAMS|DCode=24|XSize=0.45mm|YSize=0.65mm|CornerRadius=0.045mm|HoleSize=0mm|Usage=FLASHONLY|Rotation=90.000|XOffset=0mm|YOffset=0mm|HoleType=Round|Shape=RoundedRectangle|*
%AMROUNDEDRECTD24*
21,1,0.4500,0.5600,0,0,90.0*
21,1,0.3600,0.6500,0,0,90.0*
1,1,0.0900,0.2800,0.1800*
1,1,0.0900,0.2800,-0.1800*
1,1,0.0900,-0.2800,-0.1800*
1,1,0.0900,-0.2800,0.1800*
%
%ADD24ROUNDEDRECTD24*%
%ADD25R,0.7620X1.0414*%
%ADD26R,0.7620X0.3302*%
%ADD27R,1.0000X1.6000*%
%ADD28C,1.3700*%
%ADD29C,0.2500*%
%ADD30C,0.2835*%
%ADD31O,2.2098X1.1938*%
%ADD32O,2.7178X1.1938*%
G36*
X863600Y703580D02*
X858520Y698500D01*
X838108D01*
Y732860D01*
X846180D01*
Y743860D01*
Y754860D01*
X838108D01*
Y814860D01*
X846180D01*
Y825860D01*
Y836860D01*
X838108D01*
Y884265D01*
X863600D01*
Y703580D01*
D02*
G37*
G36*
X1122076Y719296D02*
X1123241Y719181D01*
X1138481D01*
X1139645Y719296D01*
X1140765Y719635D01*
X1141797Y720187D01*
X1142702Y720929D01*
X1143444Y721834D01*
X1143996Y722866D01*
X1144335Y723986D01*
X1144450Y725150D01*
X1144335Y726314D01*
X1143996Y727434D01*
X1143444Y728466D01*
X1142702Y729371D01*
X1141797Y730113D01*
X1140765Y730665D01*
X1139645Y731004D01*
X1138481Y731119D01*
X1123241D01*
X1122076Y731004D01*
X1120957Y730665D01*
X1119925Y730113D01*
X1119020Y729371D01*
X1118278Y728466D01*
X1117726Y727434D01*
X1117387Y726314D01*
X1117272Y725150D01*
X1117387Y723986D01*
X1117726Y722866D01*
X1118278Y721834D01*
X1119020Y720929D01*
X1119925Y720187D01*
X1120957Y719635D01*
X1122076Y719296D01*
D02*
G37*
%LPC*%
G36*
X850900Y881312D02*
Y873760D01*
X858452D01*
X857877Y875906D01*
X856712Y877924D01*
X855064Y879572D01*
X853046Y880737D01*
X850900Y881312D01*
D02*
G37*
G36*
X848360D02*
X846214Y880737D01*
X844196Y879572D01*
X842548Y877924D01*
X841383Y875906D01*
X840808Y873760D01*
X848360D01*
Y881312D01*
D02*
G37*
G36*
X858452Y871220D02*
X850900D01*
Y863668D01*
X853046Y864243D01*
X855064Y865408D01*
X856712Y867056D01*
X857877Y869074D01*
X858452Y871220D01*
D02*
G37*
G36*
X848360D02*
X840808D01*
X841383Y869074D01*
X842548Y867056D01*
X844196Y865408D01*
X846214Y864243D01*
X848360Y863668D01*
Y871220D01*
D02*
G37*
G36*
X857950Y836860D02*
X848720D01*
Y827130D01*
X857950D01*
Y836860D01*
D02*
G37*
G36*
Y824590D02*
X848720D01*
Y814860D01*
X857950D01*
Y824590D01*
D02*
G37*
G36*
X857950Y754860D02*
X848720D01*
Y745130D01*
X857950D01*
Y754860D01*
D02*
G37*
G36*
Y742590D02*
X848720D01*
Y732860D01*
X857950D01*
Y742590D01*
D02*
G37*
G36*
X852170Y723832D02*
Y716280D01*
X859722D01*
X859147Y718426D01*
X857982Y720444D01*
X856334Y722092D01*
X854316Y723257D01*
X852170Y723832D01*
D02*
G37*
G36*
X849630D02*
X847484Y723257D01*
X845466Y722092D01*
X843818Y720444D01*
X842653Y718426D01*
X842078Y716280D01*
X849630D01*
Y723832D01*
D02*
G37*
G36*
X859722Y713740D02*
X852170D01*
Y706188D01*
X854316Y706763D01*
X856334Y707928D01*
X857982Y709576D01*
X859147Y711594D01*
X859722Y713740D01*
D02*
G37*
G36*
X849630D02*
X842078D01*
X842653Y711594D01*
X843818Y709576D01*
X845466Y707928D01*
X847484Y706763D01*
X849630Y706188D01*
Y713740D01*
D02*
G37*
%LPD*%
D16*
X1038860Y830580D02*
D03*
X1058360Y824080D02*
D03*
Y817580D02*
D03*
Y830580D02*
D03*
X1038860Y817580D02*
D03*
Y824080D02*
D03*
D17*
X1022630Y771080D02*
D03*
Y739080D02*
D03*
X930630Y795080D02*
D03*
Y763080D02*
D03*
Y755080D02*
D03*
Y739080D02*
D03*
Y747080D02*
D03*
Y771080D02*
D03*
Y779080D02*
D03*
Y787080D02*
D03*
X1022630Y795080D02*
D03*
Y787080D02*
D03*
Y779080D02*
D03*
Y763080D02*
D03*
Y755080D02*
D03*
Y747080D02*
D03*
D18*
X917150Y742783D02*
D03*
X917150Y755650D02*
D03*
X917380Y795020D02*
D03*
X1036110Y770164D02*
D03*
Y758501D02*
D03*
X1036297Y727705D02*
D03*
X1036404Y739404D02*
D03*
X919920Y834390D02*
D03*
X1113001Y826203D02*
D03*
X908880Y795020D02*
D03*
X1044610Y770164D02*
D03*
Y758501D02*
D03*
X1044797Y727705D02*
D03*
X1044904Y739404D02*
D03*
X1104501Y826203D02*
D03*
X911420Y834390D02*
D03*
X908650Y742783D02*
D03*
X908650Y755650D02*
D03*
D19*
X913130Y808340D02*
D03*
Y822340D02*
D03*
D20*
X1028080Y829310D02*
D03*
X1037547Y714457D02*
D03*
X1014080Y829310D02*
D03*
X1083712D02*
D03*
X1051547Y714457D02*
D03*
X1069712Y829310D02*
D03*
D21*
X914400Y782320D02*
D03*
X1038860Y782044D02*
D03*
X914400Y768320D02*
D03*
X1038860Y796044D02*
D03*
D22*
X1004630Y721080D02*
D03*
X948630Y813080D02*
D03*
X956630D02*
D03*
X964630D02*
D03*
X972630D02*
D03*
X980630D02*
D03*
X988630D02*
D03*
X996630D02*
D03*
X1004630D02*
D03*
X996630Y721080D02*
D03*
X988630D02*
D03*
X980630D02*
D03*
X972630D02*
D03*
X964630D02*
D03*
X956630D02*
D03*
X948630D02*
D03*
D23*
X847450Y825860D02*
D03*
X847450Y743860D02*
D03*
X892450Y825860D02*
D03*
Y743860D02*
D03*
D24*
X1056640Y748860D02*
D03*
Y757360D02*
D03*
D25*
X1086161Y799350D02*
D03*
Y737350D02*
D03*
D26*
X1073161Y798350D02*
D03*
Y738350D02*
D03*
Y743350D02*
D03*
Y748350D02*
D03*
Y753350D02*
D03*
Y758350D02*
D03*
Y763350D02*
D03*
Y773350D02*
D03*
Y778350D02*
D03*
Y783350D02*
D03*
Y788350D02*
D03*
Y793350D02*
D03*
X1086161Y790850D02*
D03*
Y785850D02*
D03*
Y780850D02*
D03*
Y775850D02*
D03*
Y770850D02*
D03*
Y765850D02*
D03*
Y760850D02*
D03*
Y755850D02*
D03*
Y750850D02*
D03*
Y745850D02*
D03*
D27*
X1048610Y824080D02*
D03*
D28*
X849630Y872490D02*
D03*
X875030D02*
D03*
X900430D02*
D03*
X925830D02*
D03*
X951230D02*
D03*
X976630D02*
D03*
X1002030D02*
D03*
X1027430D02*
D03*
X1052830D02*
D03*
X1078230D02*
D03*
X1103630D02*
D03*
X1129030D02*
D03*
X850900Y715010D02*
D03*
X876300D02*
D03*
X849630Y661670D02*
D03*
X875030D02*
D03*
X900430D02*
D03*
X925830D02*
D03*
X951230D02*
D03*
X976630D02*
D03*
X1002030D02*
D03*
X1027430D02*
D03*
X1052830D02*
D03*
X1078230D02*
D03*
X1103630D02*
D03*
X1129030D02*
D03*
D29*
X897890Y784860D02*
D03*
X1013817Y792072D02*
D03*
X1013505Y786156D02*
D03*
X1013438Y779639D02*
D03*
X1012563Y763185D02*
D03*
X1043940Y750570D02*
D03*
X1079014Y734696D02*
D03*
X1079131Y802023D02*
D03*
X1113790Y831850D02*
D03*
X1103630Y820420D02*
D03*
X924560Y706120D02*
D03*
X939800Y746760D02*
D03*
X1086161Y775850D02*
D03*
X996950Y712470D02*
D03*
X939800Y778510D02*
D03*
Y770890D02*
D03*
Y787400D02*
D03*
X904240Y795020D02*
D03*
X914400Y762000D02*
D03*
X906780Y768350D02*
D03*
X935990Y801370D02*
D03*
X948690Y822960D02*
D03*
X942340Y810260D02*
D03*
X916940Y735330D02*
D03*
Y749300D02*
D03*
X922020Y807720D02*
D03*
X927100Y801370D02*
D03*
X1012190Y721360D02*
D03*
X1004570Y712470D02*
D03*
X1066800Y798830D02*
D03*
Y737870D02*
D03*
X1057910Y742950D02*
D03*
X1013460Y836930D02*
D03*
X1066800Y753110D02*
D03*
X1079781Y753350D02*
D03*
X1066800Y783590D02*
D03*
X1079500Y781050D02*
D03*
X1061720Y825500D02*
D03*
X1062990Y830580D02*
D03*
X1092200Y829310D02*
D03*
X1057910Y711200D02*
D03*
Y717550D02*
D03*
X1041400Y792480D02*
D03*
X1036320Y797560D02*
D03*
X1050290Y727710D02*
D03*
Y739140D02*
D03*
Y767080D02*
D03*
X1031240Y770890D02*
D03*
Y739140D02*
D03*
X1034023Y830498D02*
D03*
X1049020Y828040D02*
D03*
Y820420D02*
D03*
X1083952Y770856D02*
D03*
X1075351Y763369D02*
D03*
D30*
X1005889Y670987D02*
X1005889D01*
X964630Y712247D02*
Y721080D01*
Y712247D02*
X1005889Y670987D01*
X1005889D02*
X1011348Y665529D01*
X1013008Y663749D02*
X1025351D01*
X1011348Y665410D02*
X1013008Y663749D01*
X1011348Y665410D02*
Y665529D01*
X972630Y721080D02*
X972802Y720908D01*
Y712145D02*
Y720908D01*
Y712145D02*
X1003703Y681244D01*
X1033256D01*
X1005291Y685079D02*
X1054821D01*
X980630Y709740D02*
Y721080D01*
Y709740D02*
X1005291Y685079D01*
X1009076Y688914D02*
X1076386D01*
X988630Y709360D02*
Y721080D01*
Y709360D02*
X1009076Y688914D01*
X927775Y850900D02*
X927775D01*
X900430Y872490D02*
X902509Y870411D01*
X908264D01*
X927775Y850900D01*
X927775D02*
X955547Y823128D01*
X1013817Y792072D02*
X1016122D01*
X1019130Y795080D01*
X1013505Y786156D02*
X1021706D01*
X1022630Y787080D01*
X1022071Y779639D02*
X1022630Y779080D01*
X1013438Y779639D02*
X1022071D01*
X1022525Y763185D02*
X1022630Y763080D01*
X1012563Y763185D02*
X1022525D01*
X1043940Y750570D02*
Y757831D01*
X1044610Y758501D01*
X1086161Y737089D02*
Y737350D01*
X1073161Y738350D02*
X1075320D01*
X1078974Y734696D02*
X1083768D01*
X1086161Y737089D01*
X1075320Y738350D02*
X1078974Y734696D01*
X1075554Y798584D02*
X1078993Y802023D01*
X1086161Y799350D02*
Y799631D01*
X1083768Y802023D02*
X1086161Y799631D01*
X1078993Y802023D02*
X1083768D01*
X1103630Y820420D02*
X1103669Y820459D01*
Y825371D01*
X1104501Y826203D01*
X1113001D02*
X1113790Y826992D01*
Y831850D01*
X897610Y726160D02*
X917650Y706120D01*
X924560D01*
X939480Y747080D02*
X939800Y746760D01*
X930630Y747080D02*
X939480D01*
X897610Y726160D02*
X907818Y736368D01*
X1086134Y775823D02*
X1086161Y775850D01*
X996630Y721080D02*
X996950Y720760D01*
Y712470D02*
Y720760D01*
X1083712Y829310D02*
X1092200D01*
X930630Y787080D02*
X930950Y787400D01*
X939800D01*
X930630Y779080D02*
X931200Y778510D01*
X939800D01*
X930630Y771080D02*
X930820Y770890D01*
X939800D01*
X1019130Y795080D02*
X1022630D01*
X930630Y682270D02*
X951230Y661670D01*
X930630Y682270D02*
Y739080D01*
X948630Y689670D02*
Y721080D01*
Y689670D02*
X976630Y661670D01*
X956630Y707070D02*
X1002030Y661670D01*
X956630Y707070D02*
Y721080D01*
X1025351Y663749D02*
X1027430Y661670D01*
X1033256Y681244D02*
X1052830Y661670D01*
X1054821Y685079D02*
X1078230Y661670D01*
X1076386Y688914D02*
X1103630Y661670D01*
X850900Y853440D02*
X852170Y852170D01*
X903140D01*
X919920Y835390D01*
Y834390D02*
Y835390D01*
X1051452Y871113D02*
X1052830Y872490D01*
X1041728Y871113D02*
X1051452D01*
X1015165Y844550D02*
X1041728Y871113D01*
X1008380Y844550D02*
X1015165D01*
X1004630Y840800D02*
X1008380Y844550D01*
X1004630Y813080D02*
Y840800D01*
X996630Y841690D02*
X1027430Y872490D01*
X996630Y813080D02*
Y841690D01*
X988630Y859090D02*
X1002030Y872490D01*
X988630Y813080D02*
Y859090D01*
X976630Y869550D02*
Y872490D01*
Y869550D02*
X980630Y865550D01*
Y813080D02*
Y865550D01*
X951230Y872490D02*
X972630Y851090D01*
Y813080D02*
Y851090D01*
X925830Y872490D02*
X964630Y833690D01*
Y813080D02*
Y833690D01*
X955547Y814163D02*
Y823128D01*
Y814163D02*
X956630Y813080D01*
X904240Y795020D02*
X908880D01*
X914370Y768350D02*
X914400Y768320D01*
X906780Y768350D02*
X914370D01*
X914400Y762000D02*
Y768320D01*
X930630Y795080D02*
X934130D01*
X935212Y796162D01*
Y800592D01*
X935990Y801370D01*
X948630Y822900D02*
X948690Y822960D01*
X948630Y813080D02*
Y822900D01*
X942340Y810260D02*
X947548D01*
X948630Y811342D01*
Y813080D01*
X963973Y737870D02*
X996969D01*
X1003309Y796299D02*
Y796299D01*
X1001735Y742636D02*
Y794725D01*
X996969Y737870D02*
X1001735Y742636D01*
Y794725D02*
X1003309Y796299D01*
Y796299D02*
X1014426Y807416D01*
X961747Y732495D02*
X999195D01*
X1007110Y792499D02*
X1018226Y803615D01*
X1007110Y740410D02*
Y792499D01*
X999195Y732495D02*
X1007110Y740410D01*
X897890Y784860D02*
X897890Y784860D01*
X892450Y784860D02*
X897890D01*
X892450D02*
Y825860D01*
Y743860D02*
Y784860D01*
Y744360D02*
X902148Y754057D01*
X907818D01*
X908650Y754890D01*
Y755650D01*
X876300Y715010D02*
X877243Y715953D01*
X887402D01*
X897610Y726160D01*
X907818Y736368D02*
Y741950D01*
X908650Y742783D01*
X916940Y755440D02*
X917150Y755650D01*
X916940Y749300D02*
Y755440D01*
Y742572D02*
X917150Y742783D01*
X916940Y735330D02*
Y742572D01*
X911420Y824050D02*
X913130Y822340D01*
X911420Y824050D02*
Y834390D01*
X913130Y808340D02*
X913750Y807720D01*
X922020D01*
X914400Y782320D02*
X915323D01*
X917380Y784377D01*
Y795020D01*
X926047D02*
X927100Y796073D01*
X917380Y795020D02*
X926047D01*
X927100Y796073D02*
Y801370D01*
X1004630Y721080D02*
X1004910Y721360D01*
X1012190D01*
X1004570Y721020D02*
X1004630Y721080D01*
X1004570Y712470D02*
Y721020D01*
X1056640Y748860D02*
X1057077D01*
X1057910Y748027D01*
Y742950D02*
Y748027D01*
X1067047Y798584D02*
X1075554D01*
X1066800Y798830D02*
X1067047Y798584D01*
X1072927Y738117D02*
X1073161Y738350D01*
X1067047Y738117D02*
X1072927D01*
X1066800Y737870D02*
X1067047Y738117D01*
X1065015Y758350D02*
X1073161D01*
X1064025Y757360D02*
X1065015Y758350D01*
X1056640Y757360D02*
X1064025D01*
X1051547Y713257D02*
Y714457D01*
Y713257D02*
X1053605Y711200D01*
X1057910D01*
X1051547Y715493D02*
X1053605Y717550D01*
X1057910D01*
X1044797Y727705D02*
X1044802Y727710D01*
X1050290D01*
X1044904Y739404D02*
X1045168Y739140D01*
X1050290D01*
X1044610Y769164D02*
Y770164D01*
Y769164D02*
X1045443Y768331D01*
X1046442D01*
X1047694Y767080D01*
X1050290D01*
X1013460Y829930D02*
X1014080Y829310D01*
X1013460Y829930D02*
Y836930D01*
X1072927Y753117D02*
X1073161Y753350D01*
X1066806Y753117D02*
X1072927D01*
X1066800Y753110D02*
X1066806Y753117D01*
X1079781Y753350D02*
X1082048Y755617D01*
X1085928D01*
X1086161Y755850D01*
X1066806Y783584D02*
X1072927D01*
X1066800Y783590D02*
X1066806Y783584D01*
X1072927D02*
X1073394Y783117D01*
X1077433D01*
X1079700Y780850D02*
X1086161D01*
X1077433Y783117D02*
X1079700Y780850D01*
X1058360Y824080D02*
X1059110D01*
X1060530Y825500D01*
X1061720D01*
X1068442Y830580D02*
X1069712Y829310D01*
X1058360Y830580D02*
X1068442D01*
X1039343Y796044D02*
X1041400Y793987D01*
X1038860Y796044D02*
X1039343D01*
X1041400Y792480D02*
Y793987D01*
X1022820Y770890D02*
X1035384D01*
X1022630Y771080D02*
X1022820Y770890D01*
X1035384D02*
X1036110Y770164D01*
X1036260Y739140D02*
X1036320Y739080D01*
X1022630D02*
X1022690Y739140D01*
X1036260D01*
X1036320Y728794D02*
Y739080D01*
X1073161Y753350D02*
X1079781D01*
X1036110Y758501D02*
Y770164D01*
X1038167Y782044D02*
X1038860D01*
X1036110Y779987D02*
X1038167Y782044D01*
X1036110Y770164D02*
Y779987D01*
X1028080Y829310D02*
X1029268Y830498D01*
X1038777D01*
X1038860Y830580D01*
X1067835Y827433D02*
X1069712Y829310D01*
X1067835Y823320D02*
Y827433D01*
X1062178Y817663D02*
X1067835Y823320D01*
X1058443Y817663D02*
X1062178D01*
X1058360Y817580D02*
X1058443Y817663D01*
X1036257Y728857D02*
X1036320Y728794D01*
X1036955Y715645D02*
X1037590Y715010D01*
X1036955Y715645D02*
Y728159D01*
X1036320Y728794D02*
X1036955Y728159D01*
X1054100Y778491D02*
Y800592D01*
X1065825Y771185D02*
X1067757Y773117D01*
X1061406Y771185D02*
X1065825D01*
X1072927Y773117D02*
X1073161Y773350D01*
X1054100Y778491D02*
X1061406Y771185D01*
X1067757Y773117D02*
X1072927D01*
X1016000Y808990D02*
X1045702D01*
X1054100Y800592D01*
X1014426Y807416D02*
X1016000Y808990D01*
X1014426Y807416D02*
X1014426D01*
X1073161Y773350D02*
X1075320D01*
X1075554Y771895D02*
Y773117D01*
X1075320Y773350D02*
X1075554Y773117D01*
Y771895D02*
X1081561Y765888D01*
X1086123D02*
X1086161Y765850D01*
X1081561Y765888D02*
X1086123D01*
X930630Y763080D02*
X931713Y761998D01*
X935993D02*
X937535Y760455D01*
X931713Y761998D02*
X935993D01*
X960415Y741428D02*
X963973Y737870D01*
X945879Y760455D02*
X960415Y745919D01*
X937535Y760455D02*
X945879D01*
X960415Y741428D02*
Y745919D01*
X1059180Y765810D02*
X1065474D01*
X1048725Y776265D02*
X1059180Y765810D01*
X1065474D02*
X1067700Y763584D01*
X1072928D01*
X1048725Y776265D02*
Y798366D01*
X1072928Y763584D02*
X1073161Y763350D01*
X1043476Y803615D02*
X1048725Y798366D01*
X1018226Y803615D02*
X1043476D01*
X930630Y755080D02*
X943652D01*
X955040Y739202D02*
Y743692D01*
X943652Y755080D02*
X955040Y743692D01*
Y739202D02*
X961747Y732495D01*
D31*
X1077261Y725150D02*
D03*
Y811550D02*
D03*
D32*
X1130861Y725150D02*
D03*
Y811550D02*
D03*
M02*
