G04*
G04 #@! TF.GenerationSoftware,Altium Limited,Altium Designer,26.9.1 (10)*
G04*
G04 Layer_Color=16711935*
G04 Board_Origin=0|0*
%FSLAX44Y44*%
%MOMM*%
G71*
G04*
G04 #@! TF.SameCoordinates,695D54B9-0906-40F6-838A-D20C187186EE*
G04*
G04*
G04 #@! TF.FilePolarity,Negative*
G04*
G01*
G75*
%ADD28C,1.3700*%
%ADD29C,0.2500*%
D28*
X849630Y872490D02*
D03*
X875030D02*
D03*
X900430D02*
D03*
X925830D02*
D03*
X951230D02*
D03*
X976630D02*
D03*
X1002030D02*
D03*
X1027430D02*
D03*
X1052830D02*
D03*
X1078230D02*
D03*
X1103630D02*
D03*
X1129030D02*
D03*
X850900Y715010D02*
D03*
X876300D02*
D03*
X849630Y661670D02*
D03*
X875030D02*
D03*
X900430D02*
D03*
X925830D02*
D03*
X951230D02*
D03*
X976630D02*
D03*
X1002030D02*
D03*
X1027430D02*
D03*
X1052830D02*
D03*
X1078230D02*
D03*
X1103630D02*
D03*
X1129030D02*
D03*
D29*
X897890Y784860D02*
D03*
X1013817Y792072D02*
D03*
X1013505Y786156D02*
D03*
X1013438Y779639D02*
D03*
X1012563Y763185D02*
D03*
X1043940Y750570D02*
D03*
X1079014Y734696D02*
D03*
X1079131Y802023D02*
D03*
X1113790Y831850D02*
D03*
X1103630Y820420D02*
D03*
X924560Y706120D02*
D03*
X939800Y746760D02*
D03*
X1086161Y775850D02*
D03*
X996950Y712470D02*
D03*
X939800Y778510D02*
D03*
Y770890D02*
D03*
Y787400D02*
D03*
X904240Y795020D02*
D03*
X914400Y762000D02*
D03*
X906780Y768350D02*
D03*
X935990Y801370D02*
D03*
X948690Y822960D02*
D03*
X942340Y810260D02*
D03*
X916940Y735330D02*
D03*
Y749300D02*
D03*
X922020Y807720D02*
D03*
X927100Y801370D02*
D03*
X1012190Y721360D02*
D03*
X1004570Y712470D02*
D03*
X1066800Y798830D02*
D03*
Y737870D02*
D03*
X1057910Y742950D02*
D03*
X1013460Y836930D02*
D03*
X1066800Y753110D02*
D03*
X1079781Y753350D02*
D03*
X1066800Y783590D02*
D03*
X1079500Y781050D02*
D03*
X1061720Y825500D02*
D03*
X1062990Y830580D02*
D03*
X1092200Y829310D02*
D03*
X1057910Y711200D02*
D03*
Y717550D02*
D03*
X1041400Y792480D02*
D03*
X1036320Y797560D02*
D03*
X1050290Y727710D02*
D03*
Y739140D02*
D03*
Y767080D02*
D03*
X1031240Y770890D02*
D03*
Y739140D02*
D03*
X1034023Y830498D02*
D03*
X1049020Y828040D02*
D03*
Y820420D02*
D03*
X1083952Y770856D02*
D03*
X1075351Y763369D02*
D03*
M02*
