G04*
G04 #@! TF.GenerationSoftware,Altium Limited,Altium Designer,26.9.1 (10)*
G04*
G04 Layer_Color=2752767*
G04 Board_Origin=0|0*
%FSLAX44Y44*%
%MOMM*%
G71*
G04*
G04 #@! TF.SameCoordinates,695D54B9-0906-40F6-838A-D20C187186EE*
G04*
G04*
G04 #@! TF.FilePolarity,Positive*
G04*
G01*
G75*
%ADD41C,0.1270*%
%ADD42C,0.1693*%
D41*
X844550Y867410D02*
Y877570D01*
X854710D01*
Y867410D01*
X844550D01*
X869950D02*
Y877570D01*
X880110D01*
Y867410D01*
X869950D01*
X895350D02*
Y877570D01*
X905510D01*
Y867410D01*
X895350D01*
X920750D02*
Y877570D01*
X930910D01*
Y867410D01*
X920750D01*
X946150D02*
Y877570D01*
X956310D01*
Y867410D01*
X946150D01*
X971550D02*
Y877570D01*
X981710D01*
Y867410D01*
X971550D01*
X996950D02*
Y877570D01*
X1007110D01*
Y867410D01*
X996950D01*
X1022350D02*
Y877570D01*
X1032510D01*
Y867410D01*
X1022350D01*
X1047750D02*
Y877570D01*
X1057910D01*
Y867410D01*
X1047750D01*
X1073150D02*
Y877570D01*
X1083310D01*
Y867410D01*
X1073150D01*
X1098550D02*
Y877570D01*
X1108710D01*
Y867410D01*
X1098550D01*
X1123950D02*
Y877570D01*
X1134110D01*
Y867410D01*
X1123950D01*
X845820Y709930D02*
Y720090D01*
X855980D01*
Y709930D01*
X845820D01*
X1130861Y720070D02*
X1125781Y730230D01*
X1135941D01*
X1130861Y720070D01*
Y806470D02*
X1125781Y816630D01*
X1135941D01*
X1130861Y806470D01*
X871220Y709930D02*
Y720090D01*
X881380D01*
Y709930D01*
X871220D01*
X844550Y656590D02*
Y666750D01*
X854710D01*
Y656590D01*
X844550D01*
X869950D02*
Y666750D01*
X880110D01*
Y656590D01*
X869950D01*
X895350D02*
Y666750D01*
X905510D01*
Y656590D01*
X895350D01*
X920750D02*
Y666750D01*
X930910D01*
Y656590D01*
X920750D01*
X946150D02*
Y666750D01*
X956310D01*
Y656590D01*
X946150D01*
X971550D02*
Y666750D01*
X981710D01*
Y656590D01*
X971550D01*
X996950D02*
Y666750D01*
X1007110D01*
Y656590D01*
X996950D01*
X1022350D02*
Y666750D01*
X1032510D01*
Y656590D01*
X1022350D01*
X1047750D02*
Y666750D01*
X1057910D01*
Y656590D01*
X1047750D01*
X1073150D02*
Y666750D01*
X1083310D01*
Y656590D01*
X1073150D01*
X1098550D02*
Y666750D01*
X1108710D01*
Y656590D01*
X1098550D01*
X1123950D02*
Y666750D01*
X1134110D01*
Y656590D01*
X1123950D01*
X897890Y779780D02*
X900430Y782320D01*
X902970D01*
X900430Y784860D01*
X902970Y787400D01*
X900430D01*
X897890Y789940D01*
X895350Y787400D01*
X892810D01*
X895350Y784860D01*
X892810Y782320D01*
X895350D01*
X897890Y779780D01*
X1013817Y786992D02*
X1016357Y789532D01*
X1018897D01*
X1016357Y792072D01*
X1018897Y794612D01*
X1016357D01*
X1013817Y797152D01*
X1011277Y794612D01*
X1008737D01*
X1011277Y792072D01*
X1008737Y789532D01*
X1011277D01*
X1013817Y786992D01*
X1013505Y781076D02*
X1016045Y783616D01*
X1018585D01*
X1016045Y786156D01*
X1018585Y788696D01*
X1016045D01*
X1013505Y791236D01*
X1010965Y788696D01*
X1008425D01*
X1010965Y786156D01*
X1008425Y783616D01*
X1010965D01*
X1013505Y781076D01*
X1013438Y774559D02*
X1015978Y777099D01*
X1018518D01*
X1015978Y779639D01*
X1018518Y782179D01*
X1015978D01*
X1013438Y784719D01*
X1010898Y782179D01*
X1008358D01*
X1010898Y779639D01*
X1008358Y777099D01*
X1010898D01*
X1013438Y774559D01*
X1012563Y758105D02*
X1015103Y760645D01*
X1017643D01*
X1015103Y763185D01*
X1017643Y765725D01*
X1015103D01*
X1012563Y768265D01*
X1010023Y765725D01*
X1007483D01*
X1010023Y763185D01*
X1007483Y760645D01*
X1010023D01*
X1012563Y758105D01*
X1043940Y745490D02*
X1046480Y748030D01*
X1049020D01*
X1046480Y750570D01*
X1049020Y753110D01*
X1046480D01*
X1043940Y755650D01*
X1041400Y753110D01*
X1038860D01*
X1041400Y750570D01*
X1038860Y748030D01*
X1041400D01*
X1043940Y745490D01*
X1079014Y729616D02*
X1081554Y732156D01*
X1084094D01*
X1081554Y734696D01*
X1084094Y737236D01*
X1081554D01*
X1079014Y739776D01*
X1076474Y737236D01*
X1073934D01*
X1076474Y734696D01*
X1073934Y732156D01*
X1076474D01*
X1079014Y729616D01*
X1079131Y796943D02*
X1081671Y799483D01*
X1084211D01*
X1081671Y802023D01*
X1084211Y804563D01*
X1081671D01*
X1079131Y807103D01*
X1076591Y804563D01*
X1074051D01*
X1076591Y802023D01*
X1074051Y799483D01*
X1076591D01*
X1079131Y796943D01*
X1113790Y826770D02*
X1116330Y829310D01*
X1118870D01*
X1116330Y831850D01*
X1118870Y834390D01*
X1116330D01*
X1113790Y836930D01*
X1111250Y834390D01*
X1108710D01*
X1111250Y831850D01*
X1108710Y829310D01*
X1111250D01*
X1113790Y826770D01*
X1103630Y815340D02*
X1106170Y817880D01*
X1108710D01*
X1106170Y820420D01*
X1108710Y822960D01*
X1106170D01*
X1103630Y825500D01*
X1101090Y822960D01*
X1098550D01*
X1101090Y820420D01*
X1098550Y817880D01*
X1101090D01*
X1103630Y815340D01*
X924560Y701040D02*
X927100Y703580D01*
X929640D01*
X927100Y706120D01*
X929640Y708660D01*
X927100D01*
X924560Y711200D01*
X922020Y708660D01*
X919480D01*
X922020Y706120D01*
X919480Y703580D01*
X922020D01*
X924560Y701040D01*
X939800Y741680D02*
X942340Y744220D01*
X944880D01*
X942340Y746760D01*
X944880Y749300D01*
X942340D01*
X939800Y751840D01*
X937260Y749300D01*
X934720D01*
X937260Y746760D01*
X934720Y744220D01*
X937260D01*
X939800Y741680D01*
X1081081Y770770D02*
X1083621Y775850D01*
X1081081Y780930D01*
X1086161Y778390D01*
X1091241Y780930D01*
X1088701Y775850D01*
X1091241Y770770D01*
X1086161Y773310D01*
X1081081Y770770D01*
X996950Y707390D02*
X999490Y709930D01*
X1002030D01*
X999490Y712470D01*
X1002030Y715010D01*
X999490D01*
X996950Y717550D01*
X994410Y715010D01*
X991870D01*
X994410Y712470D01*
X991870Y709930D01*
X994410D01*
X996950Y707390D01*
X939800Y773430D02*
X942340Y775970D01*
X944880D01*
X942340Y778510D01*
X944880Y781050D01*
X942340D01*
X939800Y783590D01*
X937260Y781050D01*
X934720D01*
X937260Y778510D01*
X934720Y775970D01*
X937260D01*
X939800Y773430D01*
Y765810D02*
X942340Y768350D01*
X944880D01*
X942340Y770890D01*
X944880Y773430D01*
X942340D01*
X939800Y775970D01*
X937260Y773430D01*
X934720D01*
X937260Y770890D01*
X934720Y768350D01*
X937260D01*
X939800Y765810D01*
Y782320D02*
X942340Y784860D01*
X944880D01*
X942340Y787400D01*
X944880Y789940D01*
X942340D01*
X939800Y792480D01*
X937260Y789940D01*
X934720D01*
X937260Y787400D01*
X934720Y784860D01*
X937260D01*
X939800Y782320D01*
X904240Y789940D02*
X906780Y792480D01*
X909320D01*
X906780Y795020D01*
X909320Y797560D01*
X906780D01*
X904240Y800100D01*
X901700Y797560D01*
X899160D01*
X901700Y795020D01*
X899160Y792480D01*
X901700D01*
X904240Y789940D01*
X914400Y756920D02*
X916940Y759460D01*
X919480D01*
X916940Y762000D01*
X919480Y764540D01*
X916940D01*
X914400Y767080D01*
X911860Y764540D01*
X909320D01*
X911860Y762000D01*
X909320Y759460D01*
X911860D01*
X914400Y756920D01*
X906780Y763270D02*
X909320Y765810D01*
X911860D01*
X909320Y768350D01*
X911860Y770890D01*
X909320D01*
X906780Y773430D01*
X904240Y770890D01*
X901700D01*
X904240Y768350D01*
X901700Y765810D01*
X904240D01*
X906780Y763270D01*
X935990Y796290D02*
X938530Y798830D01*
X941070D01*
X938530Y801370D01*
X941070Y803910D01*
X938530D01*
X935990Y806450D01*
X933450Y803910D01*
X930910D01*
X933450Y801370D01*
X930910Y798830D01*
X933450D01*
X935990Y796290D01*
X948690Y817880D02*
X951230Y820420D01*
X953770D01*
X951230Y822960D01*
X953770Y825500D01*
X951230D01*
X948690Y828040D01*
X946150Y825500D01*
X943610D01*
X946150Y822960D01*
X943610Y820420D01*
X946150D01*
X948690Y817880D01*
X942340Y805180D02*
X944880Y807720D01*
X947420D01*
X944880Y810260D01*
X947420Y812800D01*
X944880D01*
X942340Y815340D01*
X939800Y812800D01*
X937260D01*
X939800Y810260D01*
X937260Y807720D01*
X939800D01*
X942340Y805180D01*
X916940Y730250D02*
X919480Y732790D01*
X922020D01*
X919480Y735330D01*
X922020Y737870D01*
X919480D01*
X916940Y740410D01*
X914400Y737870D01*
X911860D01*
X914400Y735330D01*
X911860Y732790D01*
X914400D01*
X916940Y730250D01*
Y744220D02*
X919480Y746760D01*
X922020D01*
X919480Y749300D01*
X922020Y751840D01*
X919480D01*
X916940Y754380D01*
X914400Y751840D01*
X911860D01*
X914400Y749300D01*
X911860Y746760D01*
X914400D01*
X916940Y744220D01*
X922020Y802640D02*
X924560Y805180D01*
X927100D01*
X924560Y807720D01*
X927100Y810260D01*
X924560D01*
X922020Y812800D01*
X919480Y810260D01*
X916940D01*
X919480Y807720D01*
X916940Y805180D01*
X919480D01*
X922020Y802640D01*
X927100Y796290D02*
X929640Y798830D01*
X932180D01*
X929640Y801370D01*
X932180Y803910D01*
X929640D01*
X927100Y806450D01*
X924560Y803910D01*
X922020D01*
X924560Y801370D01*
X922020Y798830D01*
X924560D01*
X927100Y796290D01*
X1012190Y716280D02*
X1014730Y718820D01*
X1017270D01*
X1014730Y721360D01*
X1017270Y723900D01*
X1014730D01*
X1012190Y726440D01*
X1009650Y723900D01*
X1007110D01*
X1009650Y721360D01*
X1007110Y718820D01*
X1009650D01*
X1012190Y716280D01*
X1004570Y707390D02*
X1007110Y709930D01*
X1009650D01*
X1007110Y712470D01*
X1009650Y715010D01*
X1007110D01*
X1004570Y717550D01*
X1002030Y715010D01*
X999490D01*
X1002030Y712470D01*
X999490Y709930D01*
X1002030D01*
X1004570Y707390D01*
X1066800Y793750D02*
X1069340Y796290D01*
X1071880D01*
X1069340Y798830D01*
X1071880Y801370D01*
X1069340D01*
X1066800Y803910D01*
X1064260Y801370D01*
X1061720D01*
X1064260Y798830D01*
X1061720Y796290D01*
X1064260D01*
X1066800Y793750D01*
Y732790D02*
X1069340Y735330D01*
X1071880D01*
X1069340Y737870D01*
X1071880Y740410D01*
X1069340D01*
X1066800Y742950D01*
X1064260Y740410D01*
X1061720D01*
X1064260Y737870D01*
X1061720Y735330D01*
X1064260D01*
X1066800Y732790D01*
X1057910Y737870D02*
X1060450Y740410D01*
X1062990D01*
X1060450Y742950D01*
X1062990Y745490D01*
X1060450D01*
X1057910Y748030D01*
X1055370Y745490D01*
X1052830D01*
X1055370Y742950D01*
X1052830Y740410D01*
X1055370D01*
X1057910Y737870D01*
X1013460Y831850D02*
X1016000Y834390D01*
X1018540D01*
X1016000Y836930D01*
X1018540Y839470D01*
X1016000D01*
X1013460Y842010D01*
X1010920Y839470D01*
X1008380D01*
X1010920Y836930D01*
X1008380Y834390D01*
X1010920D01*
X1013460Y831850D01*
X1066800Y748030D02*
X1069340Y750570D01*
X1071880D01*
X1069340Y753110D01*
X1071880Y755650D01*
X1069340D01*
X1066800Y758190D01*
X1064260Y755650D01*
X1061720D01*
X1064260Y753110D01*
X1061720Y750570D01*
X1064260D01*
X1066800Y748030D01*
X1079781Y748270D02*
X1082321Y750810D01*
X1084861D01*
X1082321Y753350D01*
X1084861Y755890D01*
X1082321D01*
X1079781Y758430D01*
X1077241Y755890D01*
X1074701D01*
X1077241Y753350D01*
X1074701Y750810D01*
X1077241D01*
X1079781Y748270D01*
X1066800Y778510D02*
X1069340Y781050D01*
X1071880D01*
X1069340Y783590D01*
X1071880Y786130D01*
X1069340D01*
X1066800Y788670D01*
X1064260Y786130D01*
X1061720D01*
X1064260Y783590D01*
X1061720Y781050D01*
X1064260D01*
X1066800Y778510D01*
X1079500Y775970D02*
X1082040Y778510D01*
X1084580D01*
X1082040Y781050D01*
X1084580Y783590D01*
X1082040D01*
X1079500Y786130D01*
X1076960Y783590D01*
X1074420D01*
X1076960Y781050D01*
X1074420Y778510D01*
X1076960D01*
X1079500Y775970D01*
X1061720Y820420D02*
X1064260Y822960D01*
X1066800D01*
X1064260Y825500D01*
X1066800Y828040D01*
X1064260D01*
X1061720Y830580D01*
X1059180Y828040D01*
X1056640D01*
X1059180Y825500D01*
X1056640Y822960D01*
X1059180D01*
X1061720Y820420D01*
X1062990Y825500D02*
X1065530Y828040D01*
X1068070D01*
X1065530Y830580D01*
X1068070Y833120D01*
X1065530D01*
X1062990Y835660D01*
X1060450Y833120D01*
X1057910D01*
X1060450Y830580D01*
X1057910Y828040D01*
X1060450D01*
X1062990Y825500D01*
X1092200Y824230D02*
X1094740Y826770D01*
X1097280D01*
X1094740Y829310D01*
X1097280Y831850D01*
X1094740D01*
X1092200Y834390D01*
X1089660Y831850D01*
X1087120D01*
X1089660Y829310D01*
X1087120Y826770D01*
X1089660D01*
X1092200Y824230D01*
X1057910Y706120D02*
X1060450Y708660D01*
X1062990D01*
X1060450Y711200D01*
X1062990Y713740D01*
X1060450D01*
X1057910Y716280D01*
X1055370Y713740D01*
X1052830D01*
X1055370Y711200D01*
X1052830Y708660D01*
X1055370D01*
X1057910Y706120D01*
Y712470D02*
X1060450Y715010D01*
X1062990D01*
X1060450Y717550D01*
X1062990Y720090D01*
X1060450D01*
X1057910Y722630D01*
X1055370Y720090D01*
X1052830D01*
X1055370Y717550D01*
X1052830Y715010D01*
X1055370D01*
X1057910Y712470D01*
X1036320Y787400D02*
X1038860Y792480D01*
X1036320Y797560D01*
X1041400Y795020D01*
X1046480Y797560D01*
X1043940Y792480D01*
X1046480Y787400D01*
X1041400Y789940D01*
X1036320Y787400D01*
X1031240Y792480D02*
X1033780Y797560D01*
X1031240Y802640D01*
X1036320Y800100D01*
X1041400Y802640D01*
X1038860Y797560D01*
X1041400Y792480D01*
X1036320Y795020D01*
X1031240Y792480D01*
X1050290Y722630D02*
X1052830Y725170D01*
X1055370D01*
X1052830Y727710D01*
X1055370Y730250D01*
X1052830D01*
X1050290Y732790D01*
X1047750Y730250D01*
X1045210D01*
X1047750Y727710D01*
X1045210Y725170D01*
X1047750D01*
X1050290Y722630D01*
Y734060D02*
X1052830Y736600D01*
X1055370D01*
X1052830Y739140D01*
X1055370Y741680D01*
X1052830D01*
X1050290Y744220D01*
X1047750Y741680D01*
X1045210D01*
X1047750Y739140D01*
X1045210Y736600D01*
X1047750D01*
X1050290Y734060D01*
Y762000D02*
X1052830Y764540D01*
X1055370D01*
X1052830Y767080D01*
X1055370Y769620D01*
X1052830D01*
X1050290Y772160D01*
X1047750Y769620D01*
X1045210D01*
X1047750Y767080D01*
X1045210Y764540D01*
X1047750D01*
X1050290Y762000D01*
X1031240Y765810D02*
X1033780Y768350D01*
X1036320D01*
X1033780Y770890D01*
X1036320Y773430D01*
X1033780D01*
X1031240Y775970D01*
X1028700Y773430D01*
X1026160D01*
X1028700Y770890D01*
X1026160Y768350D01*
X1028700D01*
X1031240Y765810D01*
Y734060D02*
X1033780Y736600D01*
X1036320D01*
X1033780Y739140D01*
X1036320Y741680D01*
X1033780D01*
X1031240Y744220D01*
X1028700Y741680D01*
X1026160D01*
X1028700Y739140D01*
X1026160Y736600D01*
X1028700D01*
X1031240Y734060D01*
X1034023Y825417D02*
X1036562Y827958D01*
X1039102D01*
X1036562Y830498D01*
X1039102Y833037D01*
X1036562D01*
X1034023Y835577D01*
X1031482Y833037D01*
X1028942D01*
X1031482Y830498D01*
X1028942Y827958D01*
X1031482D01*
X1034023Y825417D01*
X1043940Y822960D02*
X1046480Y828040D01*
X1043940Y833120D01*
X1049020Y830580D01*
X1054100Y833120D01*
X1051560Y828040D01*
X1054100Y822960D01*
X1049020Y825500D01*
X1043940Y822960D01*
Y815340D02*
X1046480Y820420D01*
X1043940Y825500D01*
X1049020Y822960D01*
X1054100Y825500D01*
X1051560Y820420D01*
X1054100Y815340D01*
X1049020Y817880D01*
X1043940Y815340D01*
X1083952Y765776D02*
X1086492Y768316D01*
X1089032D01*
X1086492Y770856D01*
X1089032Y773396D01*
X1086492D01*
X1083952Y775936D01*
X1081412Y773396D01*
X1078872D01*
X1081412Y770856D01*
X1078872Y768316D01*
X1081412D01*
X1083952Y765776D01*
X1070271Y758289D02*
X1072811Y763369D01*
X1070271Y768449D01*
X1075351Y765909D01*
X1080431Y768449D01*
X1077891Y763369D01*
X1080431Y758289D01*
X1075351Y760829D01*
X1070271Y758289D01*
D42*
X1082341Y725150D02*
G03*
X1082341Y725150I-5080J0D01*
G01*
Y811550D02*
G03*
X1082341Y811550I-5080J0D01*
G01*
M02*
