M48
;Layer_Color=9474304
;FILE_FORMAT=4:4
METRIC,LZ
;TYPE=PLATED
T01F00S00C0.1500
T03F00S00C1.0200
%
T01
X0092456Y0070612
X0091694Y0073533
Y007493
X009144Y00762
X0090678Y0076835
X0089789Y0078486
X009398Y007874
Y0077851
Y0077089
Y0074676
X01012563Y00763185
X01013438Y00779639
X01013505Y00786156
X01013817Y00792072
X010414Y0079248
X0103124Y0077089
X0105029Y0076708
X0104394Y0075057
X0105029Y0073914
X0105791Y0074295
X010668Y0073787
Y0075311
X01079781Y0075335
X01075351Y00763369
X01083952Y00770856
X01086161Y0077585
X010795Y0078105
X010668Y0078359
X01079014Y00734696
X0105029Y0072771
X0105791Y0071755
Y007112
X0100457Y0071247
X0099695
X0101219Y0072136
X0103124Y0073914
X0103632Y0079756
X010668Y0079883
X01079131Y00802023
X010922Y0082931
X0110363Y0082042
X0111379Y0083185
X0106299Y0083058
X0106172Y008255
X0104902Y0082804
Y0082042
X01034023Y00830498
X0101346Y0083693
X0094869Y0082296
X0094234Y0081026
X0093599Y0080137
X009271
X0092202Y0080772
X0090424Y0079502
T03
X0084963Y0066167
X0087503
X0090043
X0092583
X0095123
X0097663
X0100203
X0102743
X0105283
X0107823
X0110363
X0112903
X008763Y0071501
X008509
X0084963Y0087249
X0087503
X0090043
X0092583
X0095123
X0097663
X0100203
X0102743
X0105283
X0107823
X0110363
X0112903
M30
